<svg height="512" viewBox="0 0 512 512" width="512" xmlns="http://www.w3.org/2000/svg"><g id="Filled_outline" data-name="Filled outline"><path d="m24 24h464v336h-464z" fill="#cececc"/><path d="m64 64h384v256h-384z" fill="#426887"/><path d="m75.32 64h-11.32v11.32l-40-40v-11.32h11.32z" fill="#bebebc"/><path d="m488 24v11.32l-40 40v-11.32h-11.32l40-40z" fill="#bebebc"/><path d="m408 288h80v32h-80z" fill="#de5540"/><path d="m408 304h80v16h-80z" fill="#cececc"/><path d="m24 320h464v40h-464z" fill="#dfdfdd"/><path d="m216 200v64l-40 48-40-48v-64z" fill="#fdc8a2"/><path d="m328 319.77v136.23a32 32 0 0 1 -32 32h-240a32 32 0 0 1 -32-32v-136.23a31.105 31.105 0 0 1 22.93-30.02l41.07-11.2 24-6.55 24-8 40 48 40-48 24 8 24 6.55 41.07 11.2a31.105 31.105 0 0 1 22.93 30.02z" fill="#2d7dbe"/><path d="m152 328 8 24h32l8-24-24-16z" fill="#426887"/><path d="m112 272 24 64 40-24-40-48z" fill="#348ed8"/><path d="m216 264-40 48 40 24 24-64z" fill="#348ed8"/><path d="m192 352h-32l-8 143.729h48z" fill="#395d7b"/><path d="m216 200v43.87a72.017 72.017 0 0 1 -80 0v-43.87z" fill="#fdbf92"/><path d="m136 48h80a32 32 0 0 1 32 32v88a72 72 0 0 1 -72 72 72 72 0 0 1 -72-72v-88a32 32 0 0 1 32-32z" fill="#fdc8a2"/><path d="m208 40v32a136.576 136.576 0 0 1 -96.57 40h-15.43v-24a63.945 63.945 0 0 1 64-64h9.37a54.636 54.636 0 0 1 38.63 16z" fill="#844e3a"/><path d="m208 40v32a54.973 54.973 0 0 0 40 40v-32a40 40 0 0 0 -40-40z" fill="#844e3a"/><path d="m104 112a0 0 0 0 1 0 0v48a0 0 0 0 1 0 0 24 24 0 0 1 -24-24 24 24 0 0 1 24-24z" fill="#fdb683"/><path d="m272 112a0 0 0 0 1 0 0v48a0 0 0 0 1 0 0 24 24 0 0 1 -24-24 24 24 0 0 1 24-24z" fill="#fdb683" transform="matrix(-1 0 0 -1 520 272)"/><path d="m88 424h-64v32.88a31.116 31.116 0 0 0 31.12 31.12h56.88l120-32v-56z" fill="#3289d1"/><path d="m232 400 48-24h48v56h-40l-1.373 1.373a77.254 77.254 0 0 1 -54.627 22.627z" fill="#fdc8a2"/><path d="m264 424-144-24v56l120 32h56.88a31.116 31.116 0 0 0 31.12-31.12v-32.88z" fill="#348ed8"/><path d="m120 400-48-24h-48v56h40l1.373 1.373a77.254 77.254 0 0 0 54.627 22.627z" fill="#fdc8a2"/><path d="m456 424h-152a22.627 22.627 0 0 1 0 32h152a16 16 0 0 0 16-16 16 16 0 0 0 -16-16z" fill="#ffb431"/><path d="m472 392h-152a22.627 22.627 0 0 1 0 32h152a16 16 0 0 0 16-16 16 16 0 0 0 -16-16z" fill="#844e3a"/><path d="m392 392h-72a22.627 22.627 0 0 1 0 32h72a16 16 0 0 0 16-16 16 16 0 0 0 -16-16z" fill="#f1ddc1"/><path d="m456 360h-152a22.627 22.627 0 0 1 0 32h152a16 16 0 0 0 16-16 16 16 0 0 0 -16-16z" fill="#de5540"/><path d="m376 360h-72a22.627 22.627 0 0 1 0 32h72a16 16 0 0 0 16-16 16 16 0 0 0 -16-16z" fill="#e9d6bb"/><path d="m472 456h-152a22.627 22.627 0 0 1 0 32h152a16 16 0 0 0 16-16 16 16 0 0 0 -16-16z" fill="#426887"/><path d="m376 424h-72a22.627 22.627 0 0 1 0 32h72a16 16 0 0 0 16-16 16 16 0 0 0 -16-16z" fill="#e9d6bb"/><path d="m392 456h-72a22.627 22.627 0 0 1 0 32h72a16 16 0 0 0 16-16 16 16 0 0 0 -16-16z" fill="#f1ddc1"/><path d="m488 16h-248v16h228.686l-24 24h-172.686v16h168v208h-23.929l6.875-12.031-13.892-7.938-29.696 51.969h-27.358v16h128v16h16v-320a8 8 0 0 0 -8-8zm-8 296h-64v-16h64zm0-32h-24v-212.686l24-24z"/><path d="m80 72v-16h-12.686l-24-24h52.686v-16h-72a8 8 0 0 0 -8 8v248h16v-228.686l24 24v196.686h16v-192z"/><circle cx="144" cy="144" r="16"/><circle cx="208" cy="144" r="16"/><path d="m160 200h6.111a84.213 84.213 0 0 0 37.467-8.845l-7.156-14.31a68.138 68.138 0 0 1 -30.311 7.155h-6.111z"/><path d="m128 449.854v-40.409l134.686 22.447a8.033 8.033 0 0 0 1.314.108h16v-16h-15.338l-24.662-4.111v-6.945l25.889-12.944h14.111v-16h-16a7.994 7.994 0 0 0 -3.578.845l-30.922 15.461-27 4.5-2.43-43.735 4.768-14.435 7.044 4.226a8.312 8.312 0 0 0 6.752.693 8 8 0 0 0 4.855-4.744l21.439-57.172 58.037 15.832a23.107 23.107 0 0 1 17.035 22.299v16.23h16v-16.23a39.11 39.11 0 0 0 -28.825-37.738l-83.175-23.799v-26.276a79.927 79.927 0 0 0 32-63.957v-1.013a32 32 0 0 0 0-61.974v-25.013c0-.378 0-.754-.028-1.119a48.047 48.047 0 0 0 -44.647-46.753 62.175 62.175 0 0 0 -41.952-16.128h-9.373a72.081 72.081 0 0 0 -72 72v20.305a31.989 31.989 0 0 0 8 58.682v1.013a79.927 79.927 0 0 0 32 63.957v26.276l-83.173 23.8a39.2 39.2 0 0 0 -28.827 37.737v16.23h16v-16.23a23.162 23.162 0 0 1 17.037-22.3l58.033-15.831 21.439 57.172a8 8 0 0 0 4.855 4.744 8.274 8.274 0 0 0 6.752-.693l6.964-4.178 4.847 14.41-2.427 43.716-26.995-4.5-26.505-13.254v-27.056h-16v19.056l-4.422-2.211a7.994 7.994 0 0 0 -3.578-.845h-40v-16h-16v104.88a39.164 39.164 0 0 0 39.12 39.12s58.269-.091 58.942-.271l30.39-8.106-.44 8.106h15.976l.729-12.445 15.283-4.076 15.288 4.078.729 12.443h15.976l-.44-8.1 30.39 8.1c.673.18 58.942.271 58.942.271v-16h-55.836zm128-327.707a15.994 15.994 0 0 1 0 27.706zm-80.007 279.074-10.617-1.769 2.192-39.452h16.864l2.192 39.449zm10.224-57.221h-20.467l-4.624-13.746 14.874-8.924 14.777 8.866zm-42.217-82.9v-19.8a79.768 79.768 0 0 0 64 0v19.8l-32 38.4zm85.594 15.86-17.713 47.24-23.755-14.254 30.524-36.629zm-13.594-227.947a32.054 32.054 0 0 1 24 30.987v20.526a46.877 46.877 0 0 1 -24-29.549zm-120 100.84a15.994 15.994 0 0 1 0-27.706zm8-45.853v-16c0-.836.027-1.665.063-2.492a478.625 478.625 0 0 1 81.252-21.616l-2.63-15.784a487.119 487.119 0 0 0 -74.63 19.009 56.077 56.077 0 0 1 51.945-35.117h9.373a46.288 46.288 0 0 1 30.627 11.466v25.163a127.684 127.684 0 0 1 -88.568 35.371zm8 64v-48.007a143.461 143.461 0 0 0 92.586-34.006 62.813 62.813 0 0 0 35.414 31.931v50.082a64 64 0 0 1 -128 0zm28.119 156.2-17.713-47.235 10.944-3.648 30.524 36.629zm-108.119 59.8h38.111l41.889 20.944v42.6a68.74 68.74 0 0 1 -40.97-19.829l-1.372-1.373a8 8 0 0 0 -5.658-2.342h-32zm78.951 96h-55.831a23.147 23.147 0 0 1 -23.12-23.12v-16.88h28.7a84.644 84.644 0 0 0 58.15 23.973l26.1 6.958z"/><path d="m144 432h16v16h-16z"/><path d="m496 408a24.039 24.039 0 0 0 -17.7-23.154 23.985 23.985 0 0 0 -22.3-32.846h-152a8 8 0 0 0 -5.657 13.656 14.646 14.646 0 0 1 0 20.688 8 8 0 0 0 5.657 13.656h12.244a14.668 14.668 0 0 1 0 16h-12.244a8 8 0 0 0 -5.657 13.656 14.646 14.646 0 0 1 0 20.688 8 8 0 0 0 5.657 13.656h12.244a14.654 14.654 0 0 1 -1.9 18.344 8 8 0 0 0 5.656 13.656h152a24 24 0 0 0 6.3-47.154 23.9 23.9 0 0 0 0-17.692 24.039 24.039 0 0 0 17.7-23.154zm-178.442-24a30.852 30.852 0 0 0 0-16h138.442a8 8 0 0 1 0 16zm0 64a30.852 30.852 0 0 0 0-16h138.442a8 8 0 0 1 0 16zm162.442 24a8.009 8.009 0 0 1 -8 8h-138.442a30.852 30.852 0 0 0 0-16h138.442a8.009 8.009 0 0 1 8 8zm-8-56h-138.442a30.852 30.852 0 0 0 0-16h138.442a8 8 0 0 1 0 16z"/></g></svg>